<svg xmlns="http://www.w3.org/2000/svg" width="76" height="87.031" viewBox="0 0 76 87.031">
  <defs>
    <style>
      .cls-1 {
        fill: #c87e6b;
        fill-rule: evenodd;
      }
    </style>
  </defs>
  <path id="Leafs_2" data-name="Leafs 2" class="cls-1" d="M644.227,240.8c-2.673,2.749-3.7,6.086-4.494,9.749-0.976,4.495-.306,8.688-0.7,13.125-0.045.061-.092,0.122-0.135,0.185a0.448,0.448,0,0,0,.058.635c0,0.022,0,.046,0,0.067-0.469.914-.96,1.808-1.441,2.665-1.845-3.161-3.884-6.249-6.04-9.27a25.312,25.312,0,0,0,1.049-6.817,0.283,0.283,0,0,0,.061-0.059c4.762-9.372,3.534-21.9-3.265-29.923a0.563,0.563,0,0,0-.788-0.067c-3.236,3.414-2.884,8.871-2.72,13.212,0.256,6.68,2.9,12.526,4.979,18.786-0.063,1.214-.126,2.432-0.18,3.662-4-5.521-8.324-10.831-12.349-16a30.876,30.876,0,0,0-.073-4.9,0.391,0.391,0,0,0,.611-0.279c1.653-9.513.348-21.029-6.983-28.1a0.591,0.591,0,0,0-.992.177,27.044,27.044,0,0,0,5.954,27.409c0.165,1.471.324,2.943,0.489,4.42-3.7-4.772-7.524-9.493-11.617-13.952a25.025,25.025,0,0,0-1.929-8.275c-0.538-7.821-1.918-16.3-8.813-21.087a0.53,0.53,0,0,0-.786.252c-2.7,6.851,3.147,18.646,9.109,22.8a47.891,47.891,0,0,1,1.374,5.165,109.322,109.322,0,0,0-8.833-8.472,37.276,37.276,0,0,0-3.849-6.648,0.439,0.439,0,0,0,.039-0.416,39.458,39.458,0,0,0-5.857-10.6c-1.836-2.369-3.657-5.171-6.618-6.229a0.527,0.527,0,0,0-.7.442c-0.542,7.122,6.228,14.294,12.479,17.028a0.108,0.108,0,0,0,.018,0,25.52,25.52,0,0,1,1.7,2.8c0.335,0.66.588,1.346,0.854,2.018q-2.337-1.878-4.819-3.583c-1.283-3.068-4.976-5.767-7.653-7.362-3.258-1.941-7.015-2.384-10.2-.129a0.453,0.453,0,0,0-.059.64c4.26,5.012,10.491,7.008,16.992,7.217,0.191,0.2.381,0.39,0.573,0.574a0.409,0.409,0,0,0,.571-0.035q2.745,2.034,5.322,4.245a6.3,6.3,0,0,0,.566.849,0.413,0.413,0,0,0,.531.116c0.35,0.308.685,0.629,1.029,0.942-0.806-.248-1.638-0.423-2.385-0.584-0.35-.074-0.7-0.153-1.049-0.228a0.462,0.462,0,0,0-.092-0.527c-3.279-2.921-7.128-3.658-11.381-3.975-1.73-.13-7.659-0.962-8.5,1.359-1.007,2.779,5.813,3.757,7.243,4.367,4.32,1.84,10.451,4.5,14.183.237a0.2,0.2,0,0,0,.022-0.247c0.452,0.117.9,0.232,1.352,0.368,0.862,0.262,1.645.683,2.483,0.961a133.232,133.232,0,0,1,9.683,10.325,15.132,15.132,0,0,0-4.082-.563c-0.4-.02-0.8,0-1.205.01a0.463,0.463,0,0,0-.213-0.61c-5.257-2.615-14.066-3.375-18.863.471a0.542,0.542,0,0,0-.069.76c3.641,5.121,17.891,6.687,20.877.107a11.835,11.835,0,0,1,2.016.368c1.125,0.319,2.067,1,3.152,1.381q2.8,3.4,5.462,6.924,1.088,1.44,2.17,2.878c0,0.023,0,.044.008,0.067a0.3,0.3,0,0,0,.25.274q0.956,1.268,1.912,2.534A10.371,10.371,0,0,0,617.03,244a0.33,0.33,0,0,0-.067-0.157c-2.623-2.9-8.611-2.923-12.185-2.86-4.159.075-8.779,1.035-11.9,3.922a0.474,0.474,0,0,0,.035.745c3.287,2.626,8.265,2.923,12.3,3.4,4.652,0.554,9.227.1,12.318-3.714a40.526,40.526,0,0,1,3.879,1.428c3.6,4.818,7.118,9.665,10.462,14.631a14.094,14.094,0,0,0-2.711-1.077c-2.968-2.553-7.494-4.164-11.056-5.114-4.313-1.15-8.866-.824-12.271,2.229a0.543,0.543,0,0,0-.068.765c5.74,5.816,17.759,9.415,24.783,3.629a13.042,13.042,0,0,1,2.864,1.893,171.941,171.941,0,0,1,8.927,15.1,0.342,0.342,0,0,0,.622-0.281,70.735,70.735,0,0,0-4.925-10.419,37.959,37.959,0,0,0,2.224-4.193c2.842-3.018,5.869-5.809,6.511-10.115,0.659-4.425-.292-8.586-1.625-12.8A0.6,0.6,0,0,0,644.227,240.8Zm-16.676-.135c-1.125-4.086-.906-8.707-0.525-12.889,0.3-3.34,1.443-6.572,4.088-2.232a23.962,23.962,0,0,1,2.812,8.7c0.806,4.942-.193,9.695-1.414,14.431a93.833,93.833,0,0,0-1.668-13.1,0.286,0.286,0,0,0-.564.095A65.709,65.709,0,0,1,630.9,250.9C629.911,247.449,628.505,244.133,627.551,240.666Zm-16.5-29.757c1.158-5.126,5.776,7.615,6.271,9.255,1.413,4.676.7,9.237,0.675,13.946-0.533-4.161-1.6-8.327-2.39-12.3a0.319,0.319,0,0,0-.629.1c0.685,3.871,1.174,7.717,1.62,11.573C611.911,226.438,609.043,219.782,611.047,210.909ZM594.732,202.6a10.621,10.621,0,0,1,.073-5.12c0.092-.338,4.532,5.208,4.932,6.008,1.571,3.152,2.018,6.681,2.469,10.166-1.01-2.272-2.053-4.5-2.841-6.694-0.113-.312-0.575-0.095-0.472.213,1.2,3.557,2.653,7.039,3.865,10.587A33.627,33.627,0,0,1,594.732,202.6Zm-14.918-6.939c-0.852-3.048,1.713-1.029,2.7.061,0.948,1.045,1.78,2.2,2.631,3.322A44.544,44.544,0,0,1,589,205.127a9.042,9.042,0,0,0-2.541-2.579,0.027,0.027,0,0,0-.009,0,0.128,0.128,0,0,0-.106-0.012,0.116,0.116,0,0,0-.044.033,0.105,0.105,0,0,0-.041.037,0.125,0.125,0,0,0-.006.107,0.031,0.031,0,0,0,0,.007c0.469,1.346,2.142,2.825,2.965,3.926,0.322,0.432.652,0.873,0.982,1.319C585.689,204.91,581.3,201,579.814,195.663Zm-0.94,12.76a16.088,16.088,0,0,1-5.557-3.474c-2.03-1.857,1.014-2.344,2.49-2.378,4.514-.1,7.416,3.072,10.141,6.158-0.38-.234-0.753-0.475-1.139-0.7a0.057,0.057,0,0,0,0-.013l-0.39-.439a0.038,0.038,0,0,0-.057.049l0.22,0.271c-0.481-.284-0.957-0.572-1.446-0.843-0.209-.117-0.427.179-0.217,0.307,1.5,0.918,2.955,1.893,4.385,2.893,0.027,0.03.056,0.06,0.085,0.093A79.625,79.625,0,0,1,578.874,208.423Zm1.955,8.95c-1.241-.543-2.561-0.9-3.848-1.318-1.732-.566-3.891-2.14-0.977-2.616a29.084,29.084,0,0,1,7.748.229,20.8,20.8,0,0,1,4.472.9,22.285,22.285,0,0,1,3.829,2.142c-1.889-.4-3.78-0.8-5.665-1.231-0.176-.041-0.347.2-0.16,0.306a20.694,20.694,0,0,0,6.014,1.821q1.039,0.214,2.064.463C590.114,221.4,585.157,219.269,580.829,217.373Zm6.911,14.2c-0.591-.244-3.173-1.581-2.533-2.094,1.784-1.422,4.337-1.7,6.533-1.757,3.38-.086,6.48,1.121,9.729,1.613-2.05.15-4.092,0.494-6.136,0.688-0.288.027-.2,0.45,0.074,0.432,2.522-.164,5.035-0.489,7.564-0.524,0.349,0,.689.031,1.031,0.049C600.605,234.5,592.256,233.443,587.74,231.577Zm15.809,16.349a50.775,50.775,0,0,1-5.7-1.035c-0.482-.119-4.223-1.379-3.72-1.764,3.138-2.415,7.764-2.867,11.588-2.911,3.282-.038,6.028.978,8.986,1.8-2.362.141-4.713,0.584-6.3,0.775-0.351.041-.255,0.567,0.092,0.53a45.777,45.777,0,0,1,6.834-.335,9.844,9.844,0,0,1,1.4.174C613.141,248.883,608.307,248.529,603.549,247.926Zm13.112,15.062a23.343,23.343,0,0,1-6.449-2.623,19.411,19.411,0,0,1-2.363-1.687c-1.61-1.283.219-1.66,1.255-2.174,5.518-2.73,11.176.326,16.267,3.11a41.092,41.092,0,0,0-4.5-.187,0.237,0.237,0,0,0-.042.472,50.569,50.569,0,0,1,6.935,1q0.846,0.442,1.662.82A19.243,19.243,0,0,1,616.661,262.988Zm28.828-16.023a18.318,18.318,0,0,1-.162,7.737c-0.593,2.563-2.243,4.37-3.923,6.19a14.04,14.04,0,0,0,.623-6.394,0.3,0.3,0,0,0-.583.1,15.084,15.084,0,0,1-1.528,7.96c-0.015.016-.028,0.033-0.043,0.05,0.163-2.5-.08-5.016.068-7.537a27.377,27.377,0,0,1,3.637-11.749C644.451,241.91,645.455,246.8,645.489,246.965Z" transform="translate(-571 -192)"/>
</svg>
